<svg xmlns="http://www.w3.org/2000/svg" viewBox="0 0 24 24" class="_3b2d77d8" alt="OLX Property"><path d="M22.78 21.81V7.8L15.3 5.3v1.58l5.98 2V21.8H13.8V.7H1.22v21.1h-.6v1.5h22.76v-1.5h-.6zM12.3 4.3v17.5H2.72V2.2h9.58v2.1z"></path><path d="M7.98 4.37h2.42v1.21H7.98v-1.2zm-3.63 0h2.42v1.21H4.35v-1.2zM7.98 6.8h2.42V8H7.98V6.8zm-3.63 0h2.42V8H4.35V6.8zm3.63 3.62h2.42v1.21H7.98v-1.2zm-3.63 0h2.42v1.21H4.35v-1.2zm3.63 2.42h2.42v1.21H7.98v-1.2zm-3.63 0h2.42v1.21H4.35v-1.2zm3.63 3.63h2.42v1.21H7.98v-1.2zm-3.63 0h2.42v1.21H4.35v-1.2zm13.31-6.05h1.21v1.21h-1.2v-1.2zm-2.42 0h1.21v1.21h-1.2v-1.2zm2.42 2.42h1.21v1.21h-1.2v-1.2zm-2.42 0h1.21v1.21h-1.2v-1.2zm2.42 3.63h1.21v1.21h-1.2v-1.2zm-2.42 0h1.21v1.21h-1.2v-1.2z"></path></svg>