<svg xmlns="http://www.w3.org/2000/svg" viewBox="0 0 24 24" class="_3b2d77d8" alt="OLX Motors"><path d="M23.75 8.38a1.66 1.66 0 0 0-2.08-1.08l-.92.3-1.59-3.35-.5-.17a24.01 24.01 0 0 0-7.16-1c-2.23-.06-4.44.28-6.54 1.03l-.45.18-1.52 3.5-.64-.2a1.66 1.66 0 1 0-1 3.17l.12.04-.1.18a6.1 6.1 0 0 0-.61 2.26c-.01.37 0 1.11.03 1.83l.01 4v.03c-.02.36.02.73.12 1.08a1.1 1.1 0 0 0 1.11.74H4.4a1.1 1.1 0 0 0 1.1-.74c.1-.35.15-.72.13-1.08v-.44c2.76.25 4.53.37 6.28.37 1.74 0 3.45-.12 6.1-.36v.43c-.02.36.02.73.12 1.08a1.1 1.1 0 0 0 1.11.74h2.37a1.1 1.1 0 0 0 1.11-.74c.1-.35.14-.72.12-1.08l.01-3.96v-.03c.05-.74.1-1.5.1-1.93a5.6 5.6 0 0 0-.64-2.35l-.1-.21.47-.15a1.66 1.66 0 0 0 1.08-2.09zM5.37 5.18h.02c1.96-.69 4.03-1 6.1-.94 2.3-.04 4.6.28 6.8.93l.04.02 1.3 2.74a26.7 26.7 0 0 1-6.42.62h-1.06c-2.69.1-5.37-.05-8.03-.45l1.26-2.92zm-.9 13.92c0 .22-.01.45-.05.66H2a3.25 3.25 0 0 1-.04-.66v-.87c.16.08.33.13.5.15l2.02.18v.54zm17.2-.04v.04c0 .23-.01.45-.05.67h-2.44a3.26 3.26 0 0 1-.03-.67v-.53l1.88-.18c.22-.02.44-.09.63-.2v.87zm.64-9.7l-1.76.57.71 1.43c.3.57.48 1.2.5 1.85.02.37-.03 1.06-.07 1.7h-.01v.2l-.07 1.06c-.01.43-.28 1.05-.7 1.1-4.48.41-6.74.62-9 .62-2.28 0-4.66-.21-9.35-.64-.28-.03-.47-.48-.53-.9-.04-.3-.08-.79-.1-1.3v-.14a25.4 25.4 0 0 1-.02-1.62c.05-.61.21-1.21.48-1.77l.77-1.39-1.47-.46a.5.5 0 0 1 .3-.97l1.63.52.02-.02c2.45.43 4.94.6 7.43.52h2.13a26.8 26.8 0 0 0 6.92-.7l.49-.15L22 8.4a.51.51 0 0 1 .63.33.5.5 0 0 1-.33.64z"></path><path d="M4.54 12.08a1.8 1.8 0 1 0 0 3.6 1.8 1.8 0 0 0 0-3.6zm0 2.46a.65.65 0 1 1 0-1.3.65.65 0 0 1 0 1.3zm14.57-2.46a1.8 1.8 0 1 0 0 3.6 1.8 1.8 0 0 0 0-3.6zm0 2.46a.65.65 0 1 1 0-1.3.65.65 0 0 1 0 1.3zm-11.71.28h8.96v1.15H7.4v-1.15z"></path></svg>