<svg width="24" height="24" xmlns="http://www.w3.org/2000/svg" viewBox="0 0 1024 1024" class="f1ab19e0 _9e7e4db8"><path d="M512 85.33c211.75 0 384 172.27 384 384 0 200.58-214.8 392.34-312.66 469.34H440.68C342.83 861.67 128 669.9 128 469.33c0-211.73 172.27-384 384-384zm0 85.34c-164.67 0-298.67 133.97-298.67 298.66 0 160.02 196.89 340.53 298.46 416.6 74.81-56.72 298.88-241.32 298.88-416.6 0-164.69-133.98-298.66-298.67-298.66zm0 127.99c94.1 0 170.67 76.56 170.67 170.67s-76.56 170.66-170.66 170.66-170.67-76.56-170.67-170.66S417.9 298.66 512 298.66zm0 85.33c-47.06 0-85.33 38.28-85.33 85.34s38.27 85.33 85.34 85.33 85.33-38.27 85.33-85.33-38.27-85.34-85.33-85.34z"></path></svg>